<svg xmlns="http://www.w3.org/2000/svg" viewBox="0 0 24 24" id="gatsby"><path fill="#744C9E" d="M11.993 23.994a11.937 11.937 0 0 0 12.001-12c0-6.678-5.321-12-12-12s-12 5.322-12 11.999a11.936 11.936 0 0 0 11.999 12.001zM2.602 12.098l9.288 9.288c-5.114 0-9.288-4.174-9.288-9.288zm9.391-9.496a9.467 9.467 0 0 1 7.6 3.837l.018.025-1.356 1.147c-1.399-2.027-3.709-3.339-6.325-3.339h-.089a7.562 7.562 0 0 0-7.136 5.06l-.016.053 9.809 9.81c2.401-.835 4.278-2.921 4.8-5.427h-4.07v-1.774h6.157c0 4.487-3.131 8.244-7.305 9.183L2.811 9.907c.937-4.174 4.696-7.305 9.182-7.305z"></path></svg>