<svg xmlns="http://www.w3.org/2000/svg" version="1.1" xmlns:xlink="http://www.w3.org/1999/xlink" xmlns:svgjs="http://svgjs.dev/svgjs" width="200" height="100" viewBox="0 0 1000 750"><rect width="1000" height="750" fill="#333366"></rect><g transform="matrix(0.5845845845845846,0,0,0.5845845845845846,207.58158741832204,82.87400583090377)"><svg viewBox="0 0 343 343" data-background-color="#333366" preserveAspectRatio="xMidYMid meet" height="999" width="1000" xmlns="http://www.w3.org/2000/svg" xmlns:xlink="http://www.w3.org/1999/xlink"><g id="tight-bounds" transform="matrix(1,0,0,1,0.07400000000001228,0.07400000000001228)"><svg viewBox="0 0 342.8515585177538 342.8515585177538" height="342.8515585177538" width="342.8515585177538"><g><svg></svg></g><g><svg viewBox="0 0 342.8515585177538 342.8515585177538" height="342.8515585177538" width="342.8515585177538"><g><path d="M0 171.426c0-94.676 76.75-171.426 171.426-171.426 94.676 0 171.426 76.75 171.426 171.426 0 94.676-76.75 171.426-171.426 171.426-94.676 0-171.426-76.75-171.426-171.426zM171.426 335.54c90.638 0 164.114-73.476 164.114-164.114 0-90.638-73.476-164.114-164.114-164.114-90.638 0-164.114 73.476-164.114 164.114 0 90.638 73.476 164.114 164.114 164.114z" data-fill-palette-color="tertiary" fill="#ffffff" stroke="transparent"></path><ellipse rx="164.56874808852183" ry="164.56874808852183" cx="171.4257792588769" cy="171.4257792588769" fill="#ffffff" stroke="transparent" stroke-width="0" fill-opacity="1" data-fill-palette-color="tertiary"></ellipse></g><g transform="matrix(1,0,0,1,64.84655864529836,130.88644381076728)"><svg viewBox="0 0 213.15844122715708 81.07867089621926" height="81.07867089621926" width="213.15844122715708"><g><svg viewBox="0 0 213.15844122715708 81.07867089621926" height="81.07867089621926" width="213.15844122715708"><g><svg viewBox="0 0 213.15844122715708 81.07867089621926" height="81.07867089621926" width="213.15844122715708"><g><svg viewBox="0 0 213.15844122715708 81.07867089621926" height="81.07867089621926" width="213.15844122715708"><g id="textblocktransform"><svg viewBox="0 0 213.15844122715708 81.07867089621926" height="81.07867089621926" width="213.15844122715708" id="textblock"><g><svg viewBox="0 0 213.15844122715708 81.07867089621926" height="81.07867089621926" width="213.15844122715708"><g transform="matrix(1,0,0,1,0,0)"><svg width="213.15844122715708" viewBox="4 -34.099998474121094 89.6500015258789 34.099998474121094" height="81.07867089621926" data-palette-color="#333366"><path d="M20.55-4.2L33.05-34.1 37.25-34.1 37.25 0 33.55 0 33.55-27.25 22.15 0 18.65 0 7.75-27.15 7.75 0 4 0 4-34.1 8.6-34.1 20.55-4.2ZM61.75-18.35Q64.7-17.6 66.3-15.45 67.9-13.3 67.9-9.8L67.9-9.8Q67.9-5.25 65.15-2.63 62.4 0 57.6 0L57.6 0 45.2 0 45.2-34.1 56.45-34.1Q61-34.1 63.6-31.73 66.2-29.35 66.2-25.4L66.2-25.4Q66.2-22.85 65.05-21.03 63.9-19.2 61.75-18.35L61.75-18.35ZM48.95-30.95L48.95-19.55 56.9-19.55Q62.25-19.55 62.25-25.4L62.25-25.4Q62.25-28.05 60.7-29.5 59.15-30.95 56.4-30.95L56.4-30.95 48.95-30.95ZM57.1-3.1Q60.3-3.1 62.12-4.9 63.95-6.7 63.95-9.8L63.95-9.8Q63.95-12.9 62.12-14.68 60.3-16.45 57.1-16.45L57.1-16.45 48.95-16.45 48.95-3.1 57.1-3.1ZM93.15 0L71.85 0 71.85-3.15 89.95-31 72.35-31 72.35-34.1 93.65-34.1 93.65-30.35 75.85-3.1 93.15-3.1 93.15 0Z" opacity="1" transform="matrix(1,0,0,1,0,0)" fill="#333366" class="undefined-text-0" data-fill-palette-color="quaternary" id="text-0"></path></svg></g></svg></g></svg></g></svg></g><g></g></svg></g></svg></g></svg></g></svg></g><defs></defs></svg><rect width="342.8515585177538" height="342.8515585177538" fill="none" stroke="none" visibility="hidden"></rect></g></svg></g></svg>